<svg xmlns="http://www.w3.org/2000/svg" width="163" height="56" fill="none"><rect width="163" height="56" rx="5" fill="#fff" fill-opacity=".9"></rect><path d="M38.915 28.516c0-3.951 3.192-5.87 3.42-5.87-1.824-2.71-4.788-3.05-5.7-3.05-2.394-.225-4.788 1.468-6.042 1.468-1.255 0-3.193-1.354-5.245-1.354-2.622 0-5.13 1.58-6.384 3.838-2.85 4.742-.684 11.742 1.938 15.581 1.368 1.92 2.85 3.952 4.902 3.952 2.052-.113 2.736-1.242 5.13-1.242 2.394 0 3.079 1.242 5.13 1.242 2.167 0 3.535-1.92 4.789-3.84 1.596-2.144 2.166-4.29 2.166-4.402.114-.113-3.99-1.58-4.104-6.323ZM35.039 17c1.026-1.355 1.824-3.161 1.596-4.968-1.596 0-3.535 1.016-4.674 2.371-1.026 1.13-1.825 3.049-1.597 4.742 1.71.113 3.535-.903 4.675-2.145ZM63.995 39.468h-2.622l-1.368-4.404h-4.902l-1.368 4.404h-2.508l4.902-15.016h2.964l4.902 15.016Zm-4.446-6.323-1.254-3.952a50.39 50.39 0 0 0-.798-2.822c-.114.677-.342 1.58-.684 2.823l-1.254 3.951h3.99ZM76.536 33.823c0 1.806-.456 3.274-1.482 4.403-.912.903-2.052 1.468-3.306 1.468-1.482 0-2.508-.565-3.078-1.581v5.758h-2.394V32.129c0-1.129 0-2.37-.114-3.613h2.166l.114 1.694c.798-1.242 2.052-1.92 3.648-1.92 1.254 0 2.394.452 3.192 1.468.798 1.13 1.254 2.484 1.254 4.065Zm-2.508.112c0-1.016-.228-1.919-.684-2.596-.57-.678-1.254-1.016-2.166-1.016-.57 0-1.14.225-1.596.564-.456.452-.798.903-.912 1.58-.114.34-.114.565-.114.678v1.807c0 .79.228 1.467.684 2.032.456.564 1.14.79 1.938.79.912 0 1.596-.339 2.166-1.016.456-.677.684-1.694.684-2.823ZM89.076 33.823c0 1.806-.456 3.274-1.482 4.403-.912.903-2.052 1.468-3.306 1.468-1.482 0-2.508-.565-3.078-1.581v5.758h-2.508V32.129c0-1.129 0-2.37-.114-3.613h2.166l.114 1.694c.798-1.242 2.052-1.92 3.648-1.92 1.254 0 2.394.452 3.192 1.468 1.026 1.13 1.368 2.484 1.368 4.065Zm-2.394.112c0-1.016-.228-1.919-.684-2.596-.57-.678-1.254-1.016-2.166-1.016-.57 0-1.14.225-1.596.564-.456.452-.798.903-.912 1.58-.114.34-.114.565-.114.678v1.807c0 .79.228 1.467.684 2.032.456.564 1.14.79 1.938.79.912 0 1.596-.339 2.166-1.016a6.438 6.438 0 0 0 .684-2.823ZM103.213 35.177c0 1.242-.456 2.371-1.368 3.162-1.026.903-2.394 1.355-4.104 1.355-1.597 0-2.965-.34-3.876-.904l.57-2.032c1.025.677 2.28 1.016 3.534 1.016.912 0 1.596-.226 2.166-.564.456-.452.798-.904.798-1.694 0-.564-.228-1.129-.684-1.58-.456-.452-1.14-.79-2.052-1.13-2.623-1.016-3.99-2.37-3.99-4.29 0-1.242.456-2.258 1.368-3.048.912-.79 2.166-1.13 3.762-1.13 1.368 0 2.508.226 3.42.678l-.57 1.92a6.23 6.23 0 0 0-2.85-.678c-.912 0-1.482.226-2.052.678-.456.338-.57.79-.57 1.354 0 .565.228 1.13.684 1.468.456.339 1.14.79 2.166 1.13 1.254.564 2.28 1.128 2.85 1.805.456.565.798 1.468.798 2.484ZM111.193 30.436h-2.622v5.306c0 1.355.456 2.032 1.368 2.032.456 0 .798 0 1.026-.113l.114 1.807c-.456.225-1.14.225-1.938.225-.912 0-1.71-.338-2.28-.903-.57-.564-.798-1.58-.798-2.935v-5.42h-1.596V28.63h1.596v-2.032l2.394-.678v2.71h2.622c.114 0 .114 1.806.114 1.806ZM123.277 33.935c0 1.694-.456 3.049-1.482 4.065-1.026 1.129-2.394 1.694-3.99 1.694s-2.85-.565-3.876-1.581c-1.026-1.016-1.482-2.371-1.482-3.952 0-1.693.456-3.048 1.482-4.177 1.026-1.016 2.28-1.58 3.99-1.58 1.596 0 2.85.564 3.876 1.58 1.026 1.016 1.482 2.258 1.482 3.951Zm-2.508.113c0-1.016-.228-1.806-.684-2.596-.456-.904-1.254-1.242-2.166-1.242-1.026 0-1.71.451-2.28 1.242-.456.677-.684 1.58-.684 2.596 0 1.017.228 1.807.684 2.597.57.903 1.254 1.242 2.166 1.242.912 0 1.71-.452 2.166-1.355.57-.677.798-1.58.798-2.484ZM131.258 30.661c-.228 0-.456-.113-.798-.113-.912 0-1.482.34-1.938 1.017-.456.564-.57 1.241-.57 2.145v5.645h-2.509v-7.452c0-1.242 0-2.37-.114-3.387h2.167l.114 2.032h.114c.228-.677.684-1.242 1.254-1.693.57-.339 1.14-.565 1.71-.565h.57v2.371ZM142.088 33.484c0 .451 0 .79-.114 1.129h-7.296c0 1.016.342 1.92 1.026 2.484.57.451 1.368.79 2.394.79s2.052-.226 2.964-.564l.342 1.693c-1.026.452-2.28.678-3.648.678-1.71 0-3.078-.452-3.99-1.468-.912-1.016-1.482-2.258-1.482-3.952 0-1.58.456-3.048 1.368-4.064.912-1.13 2.166-1.694 3.876-1.694 1.596 0 2.736.565 3.534 1.694.684.79 1.026 1.919 1.026 3.274Zm-2.28-.565c0-.677-.114-1.354-.456-1.806-.456-.677-1.026-1.016-1.938-1.016-.798 0-1.482.338-1.938 1.016-.456.564-.684 1.129-.684 1.92l5.016-.114ZM58.751 17.452c0 1.354-.456 2.37-1.254 3.048-.798.564-1.824.903-3.192.903-.684 0-1.254 0-1.71-.113v-7.338c.684-.113 1.368-.113 2.052-.113 1.254 0 2.28.226 2.964.79.798.677 1.14 1.58 1.14 2.823Zm-1.254 0c0-.904-.228-1.468-.684-2.033-.456-.451-1.14-.677-2.052-.677-.342 0-.684 0-.912.113v5.532h.798c.912 0 1.596-.226 2.166-.79.57-.565.684-1.242.684-2.145ZM65.478 18.58c0 .791-.228 1.468-.684 2.033-.456.564-1.14.79-1.938.79-.799 0-1.369-.226-1.939-.79-.456-.565-.684-1.13-.684-1.92s.228-1.467.684-2.032c.456-.564 1.14-.79 1.938-.79.799 0 1.369.226 1.938.79.457.452.685 1.13.685 1.92Zm-1.254 0c0-.451-.115-.903-.343-1.241-.227-.452-.57-.678-1.026-.678-.455 0-.797.226-1.14.678-.228.338-.342.79-.342 1.242 0 .451.114.903.342 1.242.228.451.57.677 1.14.677.457 0 .799-.226 1.027-.677.227-.34.342-.678.342-1.242ZM74.37 15.984l-1.71 5.306h-1.14l-.684-2.258c-.228-.564-.342-1.129-.456-1.693-.114.564-.228 1.129-.456 1.693l-.684 2.258H68.1l-1.596-5.306h1.254l.684 2.484.342 1.693c.114-.451.228-1.016.456-1.693l.798-2.484h1.026l.684 2.484c.114.564.342 1.129.456 1.693.114-.564.228-1.129.342-1.806l.684-2.484 1.14.113ZM80.526 21.29h-1.14v-3.048c0-.903-.342-1.355-1.026-1.355-.342 0-.684.113-.912.339-.228.226-.342.564-.342.903v3.161h-1.14v-5.306h1.026v.79c.114-.226.342-.451.57-.677.342-.226.684-.339 1.026-.339.456 0 .912.113 1.254.452.456.338.57 1.016.57 1.806v3.274h.114ZM83.832 21.29h-1.14V13.5h1.14v7.79ZM90.9 18.58c0 .791-.228 1.468-.684 2.033-.456.564-1.14.79-1.938.79s-1.368-.226-1.938-.79c-.456-.565-.684-1.13-.684-1.92s.228-1.467.684-2.032c.456-.564 1.14-.79 1.938-.79s1.368.226 1.938.79c.456.452.684 1.13.684 1.92Zm-1.254 0c0-.451-.114-.903-.342-1.241-.228-.452-.57-.678-1.026-.678-.456 0-.798.226-1.14.678-.228.338-.342.79-.342 1.242 0 .451.114.903.342 1.242.228.451.57.677 1.14.677.456 0 .798-.226 1.026-.677.228-.34.342-.678.342-1.242ZM96.715 21.29h-1.026l-.114-.564c-.343.451-.913.677-1.597.677-.456 0-.912-.113-1.254-.451-.228-.34-.456-.678-.456-1.13 0-.677.228-1.128.798-1.467a3.61 3.61 0 0 1 2.28-.452v-.113c0-.677-.342-1.016-1.14-1.016-.57 0-1.026.113-1.368.339l-.228-.79c.456-.34 1.14-.452 1.825-.452 1.367 0 2.052.677 2.052 2.145v1.92c.114.564.114 1.016.228 1.354Zm-1.255-1.806v-.903c-1.367 0-1.938.338-1.938 1.016 0 .338 0 .564.228.677a.876.876 0 0 0 .57.226c.229 0 .457-.113.684-.226.228-.113.343-.338.456-.677v-.113ZM103.441 21.29h-1.026v-.903c-.342.677-.912 1.016-1.71 1.016-.684 0-1.14-.226-1.596-.79-.456-.565-.684-1.13-.684-1.92 0-.903.228-1.58.684-2.145.456-.451 1.026-.79 1.71-.79.684 0 1.254.226 1.482.678V13.5h1.14V21.29Zm-1.254-2.258V17.79c-.114-.338-.228-.564-.456-.677-.228-.226-.456-.339-.798-.339-.456 0-.798.226-1.026.565-.228.338-.342.79-.342 1.355 0 .564.114.903.342 1.242.228.338.57.564 1.026.564.342 0 .684-.113.912-.452.228-.338.342-.677.342-1.016ZM113.701 18.58c0 .791-.228 1.468-.684 2.033-.456.564-1.14.79-1.938.79s-1.368-.226-1.938-.79c-.456-.565-.684-1.13-.684-1.92s.228-1.467.684-2.032c.456-.564 1.14-.79 1.938-.79s1.368.226 1.938.79c.456.452.684 1.13.684 1.92Zm-1.254 0c0-.451-.114-.903-.342-1.241-.228-.452-.57-.678-1.026-.678-.456 0-.798.226-1.14.678-.228.338-.342.79-.342 1.242 0 .451.114.903.342 1.242.228.451.57.677 1.14.677.456 0 .798-.226 1.026-.677.228-.34.342-.678.342-1.242ZM120.085 21.29h-1.14v-3.048c0-.903-.342-1.355-1.14-1.355-.342 0-.684.113-.912.339-.228.226-.342.564-.342.903v3.161h-1.14v-5.306h1.026v.79c.114-.226.342-.451.57-.677a1.94 1.94 0 0 1 1.14-.339c.456 0 .912.113 1.254.452.456.338.57 1.016.57 1.806v3.274h.114ZM128.18 16.887h-1.369v2.597c0 .677.228 1.016.685 1.016h.57v.903c-.228.113-.57.113-.912.113-.457 0-.799-.113-1.141-.451-.228-.34-.342-.79-.342-1.468v-2.71h-.798v-.903h.798v-1.016l1.14-.339v1.355h1.369v.903ZM134.45 21.29h-1.14v-3.048c0-.903-.342-1.468-1.026-1.468-.57 0-.912.226-1.14.79v3.726h-1.14V13.5h1.14v3.274a1.823 1.823 0 0 1 1.596-.903c.456 0 .912.113 1.254.452.456.451.57 1.016.57 1.806-.114 0-.114 3.161-.114 3.161ZM141.062 18.355v.564h-3.534c0 .565.228.904.57 1.242a1.94 1.94 0 0 0 1.14.339c.57 0 1.026-.113 1.482-.226l.228.79c-.456.226-1.14.34-1.824.34-.798 0-1.482-.227-1.938-.678-.456-.452-.684-1.13-.684-1.92s.228-1.467.684-2.032c.456-.564 1.14-.903 1.824-.903.798 0 1.368.339 1.71.903.114.339.342.903.342 1.58Zm-1.14-.339a2.11 2.11 0 0 0-.228-.903c-.228-.339-.57-.452-.912-.452-.342 0-.684.113-.912.452-.228.226-.342.564-.342.903h2.394Z" fill="#000"></path></svg>