<svg xmlns="http://www.w3.org/2000/svg" width="164" height="56" fill="none"><rect x=".176" width="163" height="56" rx="5" fill="#fff" fill-opacity=".9"></rect><path d="M128.296 40.857h2.27V25.335h-2.27v15.522Zm20.337-9.912L146 37.678h-.09l-2.724-6.732h-2.452l3.995 9.444-2.27 5.236h2.361l6.174-14.68h-2.361Zm-12.801 8.136c-.727 0-1.816-.375-1.816-1.31 0-1.215 1.271-1.683 2.36-1.683.999 0 1.453.187 2.089.561-.091 1.403-1.272 2.431-2.633 2.431Zm.272-8.51c-1.634 0-3.359.748-3.995 2.432l1.997.841c.454-.841 1.272-1.122 2.089-1.122 1.18 0 2.36.748 2.36 1.964v.187c-.454-.28-1.271-.561-2.36-.561-2.179 0-4.358 1.215-4.358 3.553 0 2.057 1.816 3.46 3.722 3.46 1.544 0 2.361-.748 2.906-1.496h.09v1.028h2.179v-5.984c0-2.712-1.997-4.302-4.63-4.302Zm-13.891 2.245h-3.178v-5.33h3.178c1.725 0 2.633 1.402 2.633 2.711 0 1.123-.999 2.619-2.633 2.619Zm-.091-7.48h-5.448v15.521h2.27v-5.89h3.178c2.542 0 4.993-1.87 4.993-4.863 0-2.899-2.542-4.769-4.993-4.769ZM92.614 39.08c-1.543 0-2.905-1.31-2.905-3.18s1.27-3.272 2.905-3.272c1.544 0 2.724 1.402 2.724 3.272 0 1.87-1.18 3.18-2.724 3.18Zm2.542-7.294c-.544-.654-1.543-1.216-2.723-1.216-2.543 0-4.903 2.338-4.903 5.33s2.36 5.237 4.903 5.237c1.27 0 2.179-.561 2.723-1.216h.091v.748c0 2.057-1.09 3.086-2.724 3.086-1.361 0-2.27-1.029-2.633-1.87l-1.997.841c.545 1.403 2.088 3.18 4.54 3.18 2.633 0 4.902-1.59 4.902-5.517v-9.445h-2.179v.842Zm3.723 9.07h2.27V25.335h-2.27v15.522Zm5.629-5.143c-.091-2.057 1.544-3.085 2.724-3.085.908 0 1.634.467 1.906 1.122l-4.63 1.963Zm6.991-1.776c-.454-1.216-1.725-3.367-4.449-3.367-2.633 0-4.812 2.151-4.812 5.33 0 2.992 2.179 5.33 5.085 5.33 2.36 0 3.722-1.496 4.267-2.337l-1.725-1.216c-.545.842-1.362 1.496-2.542 1.496-1.181 0-1.998-.561-2.452-1.59l6.9-2.898-.272-.748ZM56.66 32.254V34.5h5.266c-.181 1.309-.545 2.15-1.18 2.805-.727.748-1.907 1.683-3.995 1.683-3.178 0-5.72-2.712-5.72-5.984 0-3.273 2.542-5.985 5.72-5.985 1.725 0 2.996.748 3.904 1.59l1.544-1.59c-1.271-1.309-3.087-2.244-5.448-2.244-4.449 0-8.08 3.74-8.08 8.229 0 4.581 3.722 8.228 8.08 8.228 2.36 0 4.177-.841 5.538-2.337 1.453-1.497 1.907-3.554 1.907-5.237 0-.56 0-1.028-.09-1.402H56.66Zm13.438 6.827c-1.544 0-2.906-1.31-2.906-3.18s1.362-3.179 2.906-3.179c1.543 0 2.905 1.31 2.905 3.18s-1.362 3.178-2.906 3.178Zm0-8.51c-2.815 0-5.176 2.245-5.176 5.33 0 3.086 2.361 5.33 5.175 5.33 2.815 0 5.176-2.244 5.176-5.33 0-3.085-2.36-5.33-5.175-5.33Zm11.258 8.51c-1.544 0-2.905-1.31-2.905-3.18s1.361-3.179 2.905-3.179c1.543 0 2.905 1.31 2.905 3.18S82.9 39.08 81.356 39.08Zm0-8.51c-2.815 0-5.175 2.245-5.175 5.33 0 3.086 2.36 5.33 5.175 5.33 2.814 0 5.175-2.244 5.175-5.33 0-3.085-2.36-5.33-5.175-5.33Z" fill="#100F0D"></path><path d="m23.975 27.673-12.893 14.12a3.45 3.45 0 0 0 3.36 2.617c.635 0 1.27-.187 1.725-.467l14.526-8.603-6.718-7.667Z" fill="#EB3131"></path><path d="m36.958 25.335-6.265-3.74-6.99 6.452 7.081 7.293 6.265-3.74c1.09-.561 1.816-1.777 1.816-3.18-.091-1.308-.817-2.524-1.907-3.085Z" fill="#F6B60B"></path><path d="M11.082 15.05c-.09.28-.181.654-.181.934v24.873c0 .28 0 .655.09.935l13.347-13.745-13.256-12.998Z" fill="#5778C5"></path><path d="m24.066 28.42 6.627-6.825-14.526-8.696c-.545-.28-1.18-.468-1.816-.468-1.544 0-2.906 1.122-3.269 2.618l12.984 13.372Z" fill="#3BAD49"></path><path d="M56.206 15.704h-3.45v.935h2.633c-.09.748-.363 1.31-.817 1.777a2.873 2.873 0 0 1-1.816.654c-.817 0-1.453-.28-1.997-.841-.545-.561-.818-1.31-.818-2.151 0-.842.273-1.59.818-2.15.544-.562 1.18-.842 1.997-.842.363 0 .817.093 1.18.187.364.187.636.374.908.654l.636-.654c-.272-.374-.726-.655-1.18-.842-.454-.187-1-.28-1.544-.28-1.09 0-1.997.374-2.724 1.122-.726.748-1.09 1.683-1.09 2.805s.364 2.057 1.09 2.805c.727.748 1.635 1.122 2.724 1.122 1.09 0 1.998-.374 2.633-1.122.636-.654.908-1.496.908-2.525 0-.28 0-.467-.09-.654Zm1.453-3.553v7.48h4.176v-.935h-3.359v-2.338h2.996v-.935h-2.996v-2.337h3.36v-.935h-4.177Zm10.169.935v-.935h-4.994v.935h1.998v6.545h.908v-6.545h2.088Zm4.54-.935h-.909v7.48h.908v-7.48Zm6.173.935v-.935h-4.993v.935h1.997v6.545h.908v-6.545h2.088Zm9.443.093a3.584 3.584 0 0 0-2.633-1.122c-1.09 0-1.907.374-2.633 1.122-.727.748-1.09 1.683-1.09 2.805 0 1.123.363 2.058 1.09 2.806a3.584 3.584 0 0 0 2.633 1.122c1.09 0 1.906-.374 2.633-1.122.726-.748 1.09-1.683 1.09-2.806 0-1.122-.364-2.057-1.09-2.805Zm-4.63.655c.544-.561 1.18-.842 1.997-.842.817 0 1.452.28 1.997.842.545.56.817 1.309.817 2.15 0 .842-.272 1.59-.817 2.151-.545.561-1.18.842-1.997.842-.817 0-1.453-.28-1.998-.842-.544-.561-.817-1.309-.817-2.15 0-.936.272-1.59.817-2.151Zm7.898 1.215v-1.402l3.723 6.078h.999v-7.48h-.908V17.947l-3.541-5.797h-1.18v7.48h.907V15.05Z" fill="#100F0D"></path></svg>