<svg xmlns="http://www.w3.org/2000/svg" width="109" height="100" viewBox="0 0 109 100" fill="none"><path d="M32.9314 81.692C32.5689 83.492 32.0251 85.292 30.7564 86.552C27.1314 90.332 19.3376 90.332 15.8939 86.552C14.9876 85.652 14.6251 84.392 14.0814 83.312C13.7189 82.232 13.1751 81.692 11.9064 81.692C9.91263 81.692 7.73763 81.872 5.74388 81.512C0.850127 80.432 -0.418623 77.192 0.125127 73.052C0.306377 71.612 1.21263 70.172 1.75638 68.732C2.30013 67.292 2.84388 66.032 3.20638 64.412C3.56888 62.252 4.47513 61.532 6.65013 61.352C7.73763 61.352 9.00638 60.992 9.91263 60.452C20.2439 55.052 31.3001 52.172 42.9001 51.272C55.5876 50.372 67.0064 53.612 77.8814 60.092C81.1439 62.072 84.9501 62.792 88.5751 63.332C91.6564 63.692 94.7376 63.872 97.8189 64.592C99.6314 64.952 101.263 66.212 103.075 66.932C103.438 67.112 103.8 67.292 104.163 67.292C105.613 67.652 106.338 68.552 106.519 69.992C106.7 70.712 107.063 71.612 107.425 72.152C108.15 73.052 108.513 74.132 107.969 75.212C107.244 76.832 106.519 78.632 105.794 80.252C105.25 81.332 104.163 81.692 103.075 81.692C101.263 81.692 99.6314 81.692 97.8189 81.692C97.2751 81.692 96.9126 81.872 96.7314 82.412C94.3751 90.872 85.3126 90.872 80.7814 87.632C79.1501 86.552 77.8814 85.112 77.5189 82.952C77.3376 81.872 76.6126 81.332 75.5251 81.332C61.7501 81.332 47.7939 81.332 34.0189 81.332C33.6564 81.512 33.2939 81.692 32.9314 81.692ZM46.1626 63.512C54.1376 63.512 61.9314 63.512 69.9064 63.512C70.4501 63.512 70.9939 63.512 71.5376 63.332C72.4439 63.152 72.8064 62.612 72.4439 61.892C72.0814 61.172 71.5376 60.452 70.9939 60.092C63.9251 56.132 56.3126 54.152 48.3376 53.972C44.7126 53.972 41.0876 54.152 37.2814 54.512C31.4814 54.872 26.2251 56.492 21.5126 59.732C20.6064 60.272 19.3376 60.812 19.8814 62.252C20.2439 63.512 21.5126 63.512 22.7814 63.512C30.3939 63.512 38.1876 63.512 46.1626 63.512ZM86.7626 71.972C82.7751 71.972 79.5126 75.212 79.5126 79.172C79.5126 83.132 82.7751 86.372 86.7626 86.372C90.7501 86.372 94.0126 83.132 94.0126 79.172C94.1939 75.212 90.9314 71.972 86.7626 71.972ZM23.1439 86.372C27.1314 86.372 30.3939 83.132 30.3939 79.172C30.3939 75.212 27.1314 71.972 23.1439 71.972C19.1564 71.972 15.8939 75.212 15.8939 79.172C15.8939 83.132 19.1564 86.372 23.1439 86.372Z" fill="white"></path><path d="M66.1001 50.732C64.1064 50.192 62.1126 49.472 59.9376 48.932C59.9376 36.692 59.9376 24.272 59.9376 11.672C61.9314 11.672 64.1064 11.672 66.1001 11.672C66.1001 24.632 66.1001 37.592 66.1001 50.732Z" fill="white"></path><path d="M26.5876 11.132C28.5814 11.132 30.5751 11.132 32.7501 11.132C32.7501 23.372 32.7501 35.612 32.7501 47.672C30.7564 48.392 28.7626 48.932 26.5876 49.472C26.5876 36.872 26.5876 24.092 26.5876 11.132Z" fill="white"></path><path d="M81.5064 58.472C79.8751 57.752 78.2439 56.852 76.6126 56.132C76.6126 41.372 76.6126 26.432 76.6126 11.312C78.2439 11.312 79.8751 11.312 81.5064 11.312C81.5064 26.972 81.5064 42.812 81.5064 58.472Z" fill="white"></path><path d="M57.5814 49.292C55.5876 48.752 53.5939 48.032 51.4189 47.492C51.4189 35.612 51.4189 23.552 51.4189 11.312C53.4126 11.312 55.4064 11.312 57.5814 11.312C57.5814 23.912 57.5814 36.512 57.5814 49.292Z" fill="white"></path><path d="M93.6501 11.132C95.1001 11.132 96.3689 11.132 97.8189 11.132C97.8189 27.872 97.8189 44.432 97.8189 61.172C96.3689 60.812 95.1001 60.272 93.6501 59.912C93.6501 43.712 93.6501 27.512 93.6501 11.132Z" fill="white"></path><path d="M15.1689 54.692C13.7189 55.232 12.4501 55.772 11.0001 56.312C11.0001 41.372 11.0001 26.432 11.0001 11.312C12.2689 11.312 13.7189 11.312 15.1689 11.312C15.1689 25.712 15.1689 40.292 15.1689 54.692Z" fill="white"></path><path d="M69.0001 11.132C70.4501 11.132 71.5376 11.132 72.8064 11.132C72.8064 25.352 72.8064 39.572 72.8064 53.792C71.5376 53.252 70.4501 52.892 69.1814 52.352C69.0001 52.172 69.0001 51.632 69.0001 51.272C69.0001 46.772 69.0001 42.272 69.0001 37.952C69.0001 29.492 69.0001 21.212 69.0001 12.752C69.0001 12.212 69.0001 11.672 69.0001 11.132Z" fill="white"></path><path d="M48.1564 11.132C48.1564 23.372 48.1564 35.252 48.1564 47.492C46.8876 47.492 45.6189 47.492 44.3501 47.492C44.3501 35.432 44.3501 23.372 44.3501 11.132C45.6189 11.132 46.8876 11.132 48.1564 11.132Z" fill="white"></path><path d="M86.4001 11.132C87.1251 11.132 87.6689 11.132 88.3939 11.132C88.3939 27.332 88.3939 43.532 88.3939 59.732C87.6689 59.552 87.1251 59.372 86.4001 59.012C86.4001 43.172 86.4001 27.332 86.4001 11.132Z" fill="white"></path><path d="M3.20638 3.21203C3.20638 5.73203 3.20638 8.07203 3.20638 10.592C3.20638 12.392 3.38763 12.212 1.57513 12.212C1.21263 12.212 0.850127 12.212 0.306377 12.212C0.306377 8.25203 0.306377 4.29203 0.306377 0.332031C7.01263 0.332031 13.5376 0.332031 20.2439 0.332031C20.2439 1.23203 20.2439 2.13203 20.2439 3.21203C14.4439 3.21203 8.82513 3.21203 3.20638 3.21203Z" fill="white"></path><path d="M0.125127 87.452C0.306377 87.452 0.306377 87.272 0.306377 87.272C3.02513 86.912 3.02513 86.912 3.02513 89.792C3.02513 91.952 3.02513 93.932 3.02513 96.272C8.64388 96.272 14.2626 96.272 20.0626 96.272C20.0626 97.352 20.0626 98.252 20.0626 99.152C13.3564 99.152 6.83138 99.152 0.125127 99.152C0.125127 95.192 0.125127 91.412 0.125127 87.452Z" fill="white"></path><path d="M108.513 12.212C107.606 12.212 106.7 12.212 105.613 12.212C105.613 9.33203 105.613 6.45203 105.613 3.39203C99.8126 3.39203 94.1939 3.39203 88.5751 3.39203C88.5751 2.31203 88.5751 1.41203 88.5751 0.332031C95.1001 0.332031 101.806 0.332031 108.513 0.332031C108.513 4.29203 108.513 8.25203 108.513 12.212Z" fill="white"></path><path d="M108.513 87.452C108.513 91.412 108.513 95.372 108.513 99.332C101.806 99.332 95.2814 99.332 88.5751 99.332C88.5751 98.432 88.5751 97.532 88.5751 96.452C94.1939 96.452 99.8126 96.452 105.431 96.452C105.431 93.392 105.431 90.512 105.431 87.452C106.7 87.452 107.606 87.452 108.513 87.452Z" fill="white"></path><path d="M20.2439 11.132C20.9689 11.132 21.5126 11.132 22.2376 11.132C22.2376 11.672 22.2376 12.032 22.2376 12.572C22.2376 24.632 22.2376 36.692 22.2376 48.752C22.2376 50.372 22.0564 51.452 20.2439 51.632C20.2439 38.132 20.2439 24.812 20.2439 11.132Z" fill="white"></path><path d="M39.0939 48.032C38.3689 48.032 37.8251 48.032 37.1001 48.032C37.1001 35.792 37.1001 23.552 37.1001 11.312C37.8251 11.312 38.3689 11.312 39.0939 11.312C39.0939 23.372 39.0939 35.612 39.0939 48.032Z" fill="white"></path></svg>