<svg xmlns="http://www.w3.org/2000/svg" width="103" height="109" viewBox="0 0 103 109" fill="none"><path d="M48.6921 108.746C46.6029 108.436 44.4861 108.183 42.4244 107.761C32.9128 105.82 24.9132 101.065 18.1507 94.0314C17.326 93.1874 16.5013 92.3433 15.814 91.3586C15.1818 90.4583 14.4395 90.2051 13.3949 90.2332C10.1511 90.2895 6.87979 90.2614 3.60847 90.2614C1.6017 90.2614 0.749512 89.3892 0.749512 87.3072C0.749512 61.0575 0.749512 34.8078 0.749512 8.55811C0.749512 4.05655 3.8009 0.933594 8.17182 0.933594C37.2288 0.933594 66.2582 0.933594 95.3152 0.933594C99.7136 0.933594 102.793 4.02841 102.793 8.52997C102.793 20.0371 102.793 31.5442 102.793 43.0794C102.793 44.9645 101.61 46.2305 100.071 45.9773C98.8064 45.7804 98.0367 44.7675 98.0367 43.2482C98.0367 37.6776 98.0367 32.0787 98.0367 26.5081C98.0367 26.1423 98.0367 25.7484 98.0367 25.2983C67.1654 25.2983 36.3766 25.2983 5.53278 25.2983C5.53278 45.3021 5.53278 65.3059 5.53278 85.4503C6.27501 85.4503 7.01724 85.4503 7.73198 85.4503C9.79373 85.4503 11.8555 85.4222 13.9172 85.4785C14.6595 85.5066 15.0993 85.2253 15.5666 84.6626C22.2467 76.5316 30.4937 70.7921 40.665 68.4007C57.0216 64.5744 71.4814 68.5695 83.8519 80.2173C85.3913 81.6521 86.7108 83.3402 88.1678 84.8876C88.4152 85.1408 88.7726 85.4222 89.075 85.4222C92.0164 85.4503 94.9578 85.4503 98.0642 85.4503C98.0642 84.972 98.0642 84.5782 98.0642 84.1561C98.0642 78.0228 98.0642 71.8613 98.0642 65.7279C98.0642 64.2086 98.8614 63.1958 100.126 63.0551C101.638 62.8863 102.765 63.9273 102.793 65.5591C102.82 67.6973 102.793 69.8356 102.793 71.9738C102.793 77.0662 102.793 82.1586 102.793 87.251C102.793 89.4736 101.995 90.3176 99.8236 90.3176C96.3873 90.3176 92.9511 90.3458 89.5423 90.2895C88.8825 90.2895 88.4977 90.5146 88.0853 91.021C80.3331 100.474 70.6292 106.411 58.6435 108.296C57.4065 108.493 56.1419 108.633 54.8774 108.802C52.8156 108.746 50.7539 108.746 48.6921 108.746ZM98.0642 20.2903C98.0642 19.9527 98.0642 19.7276 98.0642 19.4744C98.0642 15.8731 98.0642 12.2438 98.0642 8.64251C98.0642 6.70121 97.1296 5.77277 95.2053 5.77277C66.2582 5.77277 37.3387 5.77277 8.39174 5.77277C6.41246 5.77277 5.50529 6.70121 5.50529 8.72692C5.50529 12.2719 5.50529 15.8169 5.50529 19.3618C5.50529 19.6713 5.53278 19.9808 5.56027 20.2903C36.4041 20.2903 67.1379 20.2903 98.0642 20.2903ZM51.7985 71.8331C43.1666 71.8331 36.1567 78.9512 36.1292 87.7855C36.1017 96.6761 43.1116 103.879 51.771 103.879C60.3754 103.879 67.4128 96.7042 67.4403 87.8981C67.4403 79.0356 60.4579 71.8613 51.7985 71.8331ZM68.2925 75.4344C73.5156 83.706 73.5156 91.9776 68.21 100.418C74.7252 97.492 80.0857 93.3562 84.4566 87.8699C80.9654 83.0307 72.6634 76.6442 68.2925 75.4344ZM35.3595 100.418C30.0539 91.9495 30.0539 83.6778 35.3595 75.2656C28.8443 78.1916 23.4838 82.2992 19.0854 87.8418C23.4838 93.3843 28.8443 97.492 35.3595 100.418Z" fill="white"></path><path d="M51.8812 43.6422C61.0353 43.6422 70.1895 43.6422 79.3437 43.6422C79.7286 43.6422 80.1134 43.6141 80.4708 43.6704C81.7079 43.811 82.615 44.852 82.615 46.0899C82.615 47.3279 81.6804 48.3689 80.4433 48.4814C80.1134 48.5095 79.7561 48.5095 79.4262 48.5095C60.9804 48.5095 42.5346 48.5095 24.0887 48.5095C22.027 48.5095 20.8999 47.6374 20.8999 46.0899C20.8999 44.5144 22.027 43.6704 24.0887 43.6704C33.3804 43.6422 42.6445 43.6422 51.8812 43.6422Z" fill="white"></path><path d="M51.7709 32.0226C60.9801 32.0226 70.2167 32.0226 79.4259 32.0226C81.5151 32.0226 82.6147 32.8667 82.6147 34.4141C82.6147 35.9896 81.4876 36.8618 79.4534 36.8618C61.0076 36.8618 42.5618 36.8618 24.1159 36.8618C23.5936 36.8618 23.0713 36.8337 22.604 36.693C21.5319 36.4117 20.8446 35.3144 20.9271 34.2172C21.0371 33.0918 21.8618 32.1914 22.9614 32.0508C23.4012 31.9945 23.841 31.9945 24.3084 31.9945C33.4626 32.0226 42.6167 32.0226 51.7709 32.0226Z" fill="white"></path><path d="M51.7709 60.1575C42.6167 60.1575 33.4625 60.1575 24.3084 60.1575C23.896 60.1575 23.4837 60.1575 23.0713 60.1293C21.8617 60.0168 20.9821 59.0602 20.9271 57.8504C20.8721 56.6969 21.6418 55.6559 22.7964 55.4027C23.1813 55.3183 23.6211 55.3183 24.0335 55.3183C42.5342 55.3183 61.0625 55.3183 79.5633 55.3183C79.9482 55.3183 80.333 55.3183 80.6904 55.3746C81.8725 55.5996 82.6972 56.6688 82.6422 57.8504C82.5872 59.0602 81.7075 59.9887 80.498 60.1293C80.0856 60.1575 79.6733 60.1575 79.2609 60.1575C70.0793 60.1575 60.9251 60.1575 51.7709 60.1575Z" fill="white"></path><path d="M100.401 52.0546C101.72 52.0546 102.765 53.0675 102.792 54.3898C102.82 55.7121 101.693 56.8938 100.401 56.8657C99.1361 56.8657 98.064 55.7684 98.064 54.4461C98.064 53.1237 99.0811 52.0828 100.401 52.0546Z" fill="white"></path><path d="M14.9617 13.0879C14.9342 14.4383 13.9171 15.4512 12.5975 15.4512C11.3055 15.4512 10.2334 14.3539 10.2334 13.0597C10.2334 11.7374 11.388 10.5839 12.68 10.6402C13.9995 10.6683 14.9892 11.7655 14.9617 13.0879Z" fill="white"></path><path d="M25.6556 13.0598C25.6556 14.4103 24.6384 15.4513 23.3189 15.4794C21.9719 15.4794 20.8998 14.3822 20.9273 13.0317C20.9548 11.7375 22.0544 10.6403 23.3189 10.6403C24.6109 10.6403 25.6556 11.7375 25.6556 13.0598Z" fill="white"></path><path d="M33.9298 15.4513C32.6378 15.4232 31.5932 14.354 31.6206 13.0317C31.6481 11.7375 32.7202 10.6403 33.9848 10.6403C35.3043 10.6403 36.3764 11.7938 36.3489 13.1443C36.294 14.4666 35.2493 15.4794 33.9298 15.4513Z" fill="white"></path><path d="M51.7709 76.7007C57.8187 76.7007 62.6845 81.7087 62.6845 87.8702C62.6845 94.0317 57.7363 99.0679 51.7434 99.0397C45.7781 99.0116 40.9124 94.0036 40.8849 87.8984C40.8574 81.7087 45.7231 76.7007 51.7709 76.7007ZM51.8259 81.5681C48.4172 81.5681 45.6407 84.3253 45.6132 87.7858C45.5857 91.2745 48.3897 94.2006 51.7984 94.1724C55.1522 94.1724 57.9562 91.3027 57.9562 87.8702C57.9562 84.4097 55.2072 81.5681 51.8259 81.5681Z" fill="white"></path></svg>