<svg xmlns="http://www.w3.org/2000/svg" width="106" height="112" viewBox="0 0 106 112" fill="none"><path d="M77.8175 111.258C61.7895 111.258 45.7906 111.258 29.7626 111.258C29.6462 111.228 29.5008 111.169 29.3844 111.169C28.1336 110.99 26.97 110.602 25.8937 109.945C22.6358 107.945 20.9486 104.99 20.8904 101.08C20.8904 100.602 20.8904 100.125 20.8904 99.6771C9.34213 99.5279 0.702718 90.1854 0.179118 79.3803C-0.0535939 74.1569 1.31359 69.411 4.48428 65.2621C8.61491 59.8298 14.1418 57.0837 20.8904 56.8748C20.8904 56.6062 20.8904 56.3674 20.8904 56.1286C20.8904 41.0254 20.8904 25.9222 20.8904 10.7892C20.8904 10.3713 20.8904 9.95342 20.9195 9.56539C21.2104 4.34196 25.4865 0.103516 30.577 0.103516C52.3356 0.103516 74.0941 0.103516 95.8526 0.103516C97.2198 0.103516 98.5579 0.401998 99.7796 1.02881C103.532 2.96894 105.481 6.103 105.481 10.431C105.51 32.3097 105.481 54.1586 105.481 76.0373C105.481 77.7984 105.51 79.5296 105.452 81.2906C105.423 82.0368 105.336 82.7532 105.19 83.4695C104.725 85.5589 103.59 87.2304 102.165 88.7228C96.2889 94.9611 90.3548 101.14 84.4207 107.348C83.3444 108.452 82.2099 109.527 80.8136 110.184C79.8828 110.631 78.8356 110.9 77.8175 111.258ZM100.39 45.9802C100.39 34.1603 100.39 22.3404 100.361 10.5205C100.361 9.74448 100.216 8.87889 99.9251 8.19238C99.0815 6.25224 97.4816 5.3568 95.4163 5.3568C73.9486 5.3568 52.4519 5.3568 30.9843 5.3568C30.8389 5.3568 30.6934 5.3568 30.5189 5.3568C29.6462 5.41649 28.8026 5.65528 28.0754 6.19255C26.621 7.23723 26.0101 8.6998 26.0101 10.5205C26.0101 25.9819 26.0101 41.4433 26.0101 56.9345C26.0101 56.9942 26.0101 57.0837 26.0101 57.1434C25.981 57.4419 26.0974 57.5613 26.3882 57.621C36.5985 60.4566 43.0853 70.4557 41.6017 81.2608C40.7582 87.3199 37.8202 92.1255 32.9623 95.7073C30.9843 97.1698 28.8317 98.1847 26.4755 98.8413C26.301 98.901 26.0392 99.0801 26.0392 99.1995C26.0392 100.155 25.9519 101.11 26.1264 102.035C26.5337 104.453 28.4826 105.975 30.9843 105.975C46.1687 105.975 61.324 105.975 76.5085 106.005C77.6429 106.005 78.5738 105.706 79.4755 105.05C79.7664 104.841 79.8828 104.602 79.8828 104.244C79.8828 100.185 79.8537 96.1252 79.8828 92.0658C79.8828 91.3793 79.941 90.6629 80.0864 89.9764C80.8718 86.6334 83.7225 84.3053 87.0968 84.3053C90.9948 84.2754 94.9218 84.3053 98.8197 84.3053C98.9942 84.3053 99.256 84.3053 99.3142 84.1859C99.8087 83.38 100.39 82.6338 100.39 81.5891C100.39 69.7095 100.39 57.8299 100.39 45.9802ZM34.6495 71.5601C32.8751 69.6498 31.1007 67.7694 29.3262 65.8591C25.1083 70.008 20.9486 74.0972 16.7307 78.2461C15.509 76.9925 14.3163 75.7687 13.1528 74.5449C11.3493 76.3955 9.57484 78.2162 7.80042 80.037C10.7384 83.0517 13.7346 86.0962 16.7307 89.1705C22.6649 83.3501 28.6572 77.47 34.6495 71.5601Z" fill="white"></path><path d="M92.1293 53.1735C92.1293 54.636 92.1293 56.0389 92.1293 57.5015C76.974 57.5015 61.8768 57.5015 46.6924 57.5015C46.6924 56.0687 46.6924 54.636 46.6924 53.1735C61.8477 53.1735 76.974 53.1735 92.1293 53.1735Z" fill="white"></path><path d="M46.7212 65.6201C46.7212 64.1874 46.7212 62.7547 46.7212 61.2921C61.8474 61.2921 76.9737 61.2921 92.1581 61.2921C92.1581 62.7248 92.1581 64.1575 92.1581 65.6201C77.0028 65.6201 61.8765 65.6201 46.7212 65.6201Z" fill="white"></path><path d="M46.7212 74.6044C46.7212 73.1717 46.7212 71.739 46.7212 70.3063C61.8765 70.3063 77.0028 70.3063 92.1581 70.3063C92.1581 71.739 92.1581 73.1717 92.1581 74.6044C77.0028 74.6044 61.8765 74.6044 46.7212 74.6044Z" fill="white"></path><path d="M46.4304 13.8637C46.4304 14.0428 46.4304 14.2219 46.4304 14.3711C46.4304 18.4603 46.4304 22.5197 46.4304 26.6089C46.4304 26.8775 46.285 27.2059 46.1105 27.3849C43.347 30.2504 40.5836 33.0561 37.8201 35.8917C37.7038 36.0111 37.5874 36.1305 37.4129 36.2797C34.2713 32.1308 33.3986 27.6237 35.1148 22.6988C37.0347 17.2366 42.0089 14.1622 46.4304 13.8637Z" fill="white"></path><path d="M61.0623 28.8174C60.2769 34.2796 57.6007 38.2793 52.6265 40.3089C47.8559 42.2789 43.3762 41.3835 39.2456 38.1897C39.362 38.0405 39.4492 37.9509 39.5365 37.8614C42.3581 34.9661 45.1797 32.0708 48.0014 29.1756C48.2341 28.9368 48.4959 28.8174 48.8159 28.8174C52.7138 28.8174 56.6117 28.8174 60.4805 28.8174C60.6551 28.8174 60.8296 28.8174 61.0623 28.8174Z" fill="white"></path><path d="M92.129 40.7568C90.7327 40.7568 89.3655 40.7568 87.9692 40.7568C87.9692 31.7128 87.9692 22.6986 87.9692 13.6248C89.3364 13.6248 90.7327 13.6248 92.129 13.6248C92.129 22.6389 92.129 31.6829 92.129 40.7568Z" fill="white"></path><path d="M49.0195 13.8637C55.0119 14.3413 60.3933 19.4155 61.0042 26.1313C57.019 26.1313 53.0338 26.1313 49.0195 26.1313C49.0195 22.0421 49.0195 17.9828 49.0195 13.8637Z" fill="white"></path><path d="M78.312 40.727C78.312 35.1752 78.312 29.6533 78.312 24.1314C79.7083 24.1314 81.0755 24.1314 82.5008 24.1314C82.5008 29.6533 82.5008 35.1752 82.5008 40.727C81.1336 40.727 79.7374 40.727 78.312 40.727Z" fill="white"></path><path d="M68.7124 34.0111C70.1087 34.0111 71.5049 34.0111 72.9303 34.0111C72.9303 36.2497 72.9303 38.4883 72.9303 40.7568C71.534 40.7568 70.1378 40.7568 68.7124 40.7568C68.7124 38.4883 68.7124 36.2497 68.7124 34.0111Z" fill="white"></path></svg>