<svg xmlns="http://www.w3.org/2000/svg" width="164" height="56" fill="none"><rect x=".176" width="163" height="56" rx="5" fill="#fff" fill-opacity=".9"></rect><path d="m60.655 14.526-1.121 1.105c-.701-.72-1.542-1.105-2.476-1.105-.794 0-1.495.288-2.056.817a2.622 2.622 0 0 0-.84 1.97c0 .817.28 1.49.84 2.018.561.577 1.262.817 2.103.817.56 0 .98-.096 1.354-.336.374-.24.654-.577.888-1.058h-2.383v-1.49h4.158v.337c0 .721-.187 1.394-.56 2.067-.374.672-.841 1.153-1.449 1.49a4.276 4.276 0 0 1-2.102.528c-.84 0-1.635-.192-2.289-.577-.654-.384-1.214-.913-1.588-1.586a4.651 4.651 0 0 1-.607-2.258c0-1.105.373-2.066 1.074-2.883.841-.961 1.962-1.442 3.364-1.442.7 0 1.4.144 2.008.385.654.288 1.168.672 1.682 1.201ZM62.71 13.18h4.531v1.538h-2.943v1.49h2.943v1.538h-2.943v2.162h2.943v1.537h-4.53v-8.264ZM67.849 13.18h4.577v1.538h-1.494v6.727h-1.589v-6.727h-1.448v-1.537h-.046ZM76.63 13.18h1.542v8.265h-1.541v-8.264ZM79.153 13.18h4.578v1.538h-1.495v6.727h-1.588v-6.727H79.2v-1.537h-.047ZM91.952 12.988c1.168 0 2.196.433 3.037 1.25.84.817 1.26 1.874 1.26 3.123 0 1.201-.42 2.21-1.26 3.075-.841.817-1.822 1.25-3.037 1.25-1.26 0-2.289-.433-3.083-1.298-.84-.865-1.214-1.874-1.214-3.075 0-.769.187-1.538.56-2.162a3.941 3.941 0 0 1 1.589-1.586 4.124 4.124 0 0 1 2.148-.577Zm-.046 1.538a2.61 2.61 0 0 0-1.916.817c-.513.528-.794 1.201-.794 2.018 0 .913.327 1.634.981 2.162.514.433 1.075.625 1.775.625a2.61 2.61 0 0 0 1.916-.817c.513-.528.794-1.201.794-2.018 0-.769-.28-1.442-.794-2.018-.514-.577-1.215-.769-1.962-.769ZM97.698 13.18h1.495l3.55 5.43v-5.43h1.588v8.265h-1.495l-3.55-5.43v5.43h-1.588v-8.264ZM52.714 24.857h3.036l2.336 10.572 2.896-10.572h2.569l2.896 10.572 2.29-10.572h3.035L68.13 41.435h-2.943l-2.99-10.716L59.3 41.435h-2.896l-3.69-16.578ZM74.949 24.136c.514 0 .98.193 1.355.577.373.384.56.865.56 1.441 0 .53-.187 1.01-.56 1.394-.374.385-.795.577-1.355.577-.514 0-.981-.192-1.355-.577-.373-.384-.56-.865-.56-1.441 0-.53.186-1.01.56-1.394.374-.384.841-.577 1.355-.577Zm-1.495 5.046h2.99v12.253h-2.99V29.182ZM79.153 29.182h2.99v1.25c.7-.577 1.308-1.01 1.822-1.25a4.204 4.204 0 0 1 1.681-.336c1.168 0 2.196.432 2.99 1.249.7.72 1.027 1.778 1.027 3.22v8.12h-2.942v-5.334c0-1.441-.047-2.45-.187-2.93-.14-.481-.327-.866-.654-1.106-.327-.24-.701-.384-1.168-.384-.607 0-1.121.192-1.542.624a3.371 3.371 0 0 0-.887 1.73c-.094.385-.14 1.201-.14 2.499v4.901h-2.99V29.182ZM101.388 24.473h2.99v16.962h-2.99v-1.297a6.003 6.003 0 0 1-1.775 1.249 5.054 5.054 0 0 1-1.915.384c-1.541 0-2.85-.624-3.97-1.825-1.122-1.25-1.682-2.74-1.682-4.566 0-1.873.56-3.46 1.635-4.66 1.074-1.202 2.429-1.826 3.97-1.826.701 0 1.402.144 2.009.432.607.288 1.214.673 1.728 1.25v-6.103Zm-3.13 7.256c-.934 0-1.681.336-2.288 1.009-.608.672-.935 1.537-.935 2.595 0 1.057.327 1.922.935 2.594a3 3 0 0 0 2.289 1.01c.934 0 1.728-.337 2.335-1.01.607-.672.934-1.537.934-2.643 0-1.057-.327-1.922-.934-2.594-.607-.673-1.401-.961-2.335-.961ZM113.02 28.893a6.2 6.2 0 0 1 3.176.865c.981.577 1.775 1.346 2.336 2.355.56 1.01.841 2.066.841 3.22a6.67 6.67 0 0 1-.841 3.267 6.077 6.077 0 0 1-2.289 2.355 6.08 6.08 0 0 1-3.176.864c-1.729 0-3.177-.624-4.391-1.873-1.215-1.25-1.822-2.788-1.822-4.566 0-1.922.7-3.507 2.055-4.805 1.168-1.153 2.523-1.681 4.111-1.681Zm.047 2.884c-.935 0-1.682.336-2.336 1.009-.607.672-.934 1.537-.934 2.547 0 1.057.327 1.922.934 2.594.607.673 1.401 1.01 2.336 1.01.934 0 1.728-.337 2.335-1.01.607-.672.934-1.537.934-2.594 0-1.058-.327-1.923-.934-2.547-.607-.673-1.401-1.01-2.335-1.01ZM120.447 29.182h2.943l2.382 6.967 2.57-6.967h1.775l2.522 6.871 2.383-6.871h2.942l-4.344 12.253h-1.915l-2.476-6.968-2.616 6.968h-1.868l-4.298-12.253ZM146.98 30.912l-1.868 1.922c-.748-.77-1.449-1.154-2.056-1.154-.327 0-.607.097-.794.24a.668.668 0 0 0-.28.53c0 .143.046.336.187.432.14.096.42.336.887.576l1.075.577c1.167.577 1.961 1.201 2.382 1.778.42.577.654 1.345.654 2.162 0 1.105-.374 2.018-1.168 2.74-.794.72-1.822 1.104-3.13 1.104-1.728 0-3.129-.72-4.157-2.114l1.822-2.066c.373.432.747.769 1.214 1.01.467.24.888.383 1.261.383.374 0 .701-.096.935-.288.233-.192.373-.432.373-.673 0-.48-.42-.913-1.308-1.393l-1.027-.529c-1.915-1.009-2.896-2.258-2.896-3.748 0-.96.373-1.778 1.074-2.498.701-.721 1.635-1.01 2.803-1.01.794 0 1.495.193 2.195.53.701.335 1.355.816 1.822 1.489Z" fill="#000"></path><path d="M28.05 27.452V14.574l-11.305 2.162v10.716h11.304Z" fill="#F25022"></path><path d="M28.657 27.452h18.451v-16.53L28.657 14.43v13.022Z" fill="#7FBA00"></path><path d="M28.05 28.029H16.744v10.715l11.304 2.163V28.029Z" fill="#01A4EF"></path><path d="M28.657 28.029V41.05l18.451 3.508v-16.53H28.657Z" fill="#FFB901"></path></svg>